<svg xmlns="http://www.w3.org/2000/svg" width="59" height="60"><path d="M57.08 20.04a2.371 2.371 0 00-4.435 1.68 24.753 24.753 0 01-32.894 31.52 24.945 24.945 0 01-4.913-2.81A24.75 24.75 0 0138.466 7.42l-1.68 2.84c-.462.78-.107 1.3.787 1.15l7.983-1.29a1.322 1.322 0 001.075-1.81L43.923.69c-.3-.86-.929-.92-1.39-.14l-1.621 2.74a29.5 29.5 0 00-28.885 50.97 30.068 30.068 0 005.855 3.34A29.5 29.5 0 0057.08 20.04zm-28.619-8.5a1.92 1.92 0 00-1.92 1.92V32.6l17.495 9.05a1.975 1.975 0 00.879.21 1.917 1.917 0 00.883-3.62l-15.417-7.98v-16.8a1.92 1.92 0 00-1.92-1.92z" fill="#d12c2c" fill-rule="evenodd"/></svg>