<svg xmlns="http://www.w3.org/2000/svg" width="52" height="60"><path d="M3.71 52.5h3.72v3.75A3.73 3.73 0 0011.14 60h37.15A3.73 3.73 0 0052 56.25v-45a3.73 3.73 0 00-3.71-3.75h-3.72V3.75A3.73 3.73 0 0040.86 0H3.71A3.73 3.73 0 000 3.75v45a3.73 3.73 0 003.71 3.75zm37.15-3.75H3.71v-45h37.15v45zm7.43-37.5v45H11.14V52.5h29.72a3.73 3.73 0 003.71-3.75v-37.5h3.72zm-33.43 1.87A1.865 1.865 0 0016.71 15h18.58a1.875 1.875 0 000-3.75H16.71a1.863 1.863 0 00-1.85 1.87zM9.29 26.25h26a1.875 1.875 0 000-3.75h-26a1.875 1.875 0 000 3.75zm0 7.5h26a1.875 1.875 0 000-3.75h-26a1.875 1.875 0 000 3.75zm0 7.5h26a1.875 1.875 0 000-3.75h-26a1.875 1.875 0 000 3.75z" fill="#d12c2c" fill-rule="evenodd"/></svg>