<svg xmlns="http://www.w3.org/2000/svg" width="60" height="60"><path d="M14.7 51.99c.491-.42 12.031-10.58 12.031-21.11a13.365 13.365 0 00-26.728 0c0 10.53 11.54 20.69 12.031 21.11a2.027 2.027 0 002.666 0zM4.036 30.88a9.332 9.332 0 0118.662 0c0 6.83-6.469 14.02-9.331 16.86C10.5 44.9 4.032 37.71 4.032 30.88zm41.272 3.43a2.027 2.027 0 002.666 0c.491-.43 12.031-10.58 12.031-21.11a13.365 13.365 0 00-26.728 0C33.272 23.73 44.813 33.88 45.3 34.31zm1.333-30.33a9.288 9.288 0 019.33 9.22c0 6.83-6.469 14.01-9.33 16.86-2.862-2.85-9.332-10.03-9.332-16.86a9.289 9.289 0 019.328-9.22zm-.03 32.61L13.338 56.3a1.977 1.977 0 00-.692 2.73 2.007 2.007 0 001.731.97 2.048 2.048 0 001.036-.28L48.682 40a1.972 1.972 0 00.692-2.73 2.03 2.03 0 00-2.767-.68zm-30.381-.74a.965.965 0 00.417.33 1.34 1.34 0 00.582.13 1.357 1.357 0 00.972-.4 1.256 1.256 0 00.4-.9 3.305 3.305 0 00-.33-1.19l-2.864-7.01a3.5 3.5 0 00-.328-.6 1.831 1.831 0 00-.582-.52 1.9 1.9 0 00-.892-.2 1.88 1.88 0 00-.885.2 1.785 1.785 0 00-.585.54 3.921 3.921 0 00-.362.7l-3 7.56a1.8 1.8 0 00-.085.53 1.208 1.208 0 00.413.9 1.314 1.314 0 00.941.39 1.049 1.049 0 00.958-.42c.286-.48.9-2.06.9-2.06h3.432s.606 1.54.894 2.02zm-3.517-4.29l.884-2.43.9 2.43h-1.783zm35.961-13.22a4.288 4.288 0 001.14-.29 2.928 2.928 0 001.316-1.11 3.039 3.039 0 00.486-1.68 2.621 2.621 0 00-1.459-2.43 2.524 2.524 0 001-2.07 2.738 2.738 0 00-.166-.94 2.769 2.769 0 00-1.194-1.41 3.1 3.1 0 00-1.066-.39 8.055 8.055 0 00-1.285-.09h-3.181a1.675 1.675 0 00-1.206.4 1.624 1.624 0 00-.4 1.2v7.29a1.665 1.665 0 00.39 1.19 1.641 1.641 0 001.219.41h3a11.616 11.616 0 001.402-.08zm-3.225-8.16h1.685a.865.865 0 110 1.73h-1.685v-1.73zm0 3.94h2.283a1.015 1.015 0 110 2.03h-2.283v-2.03z" fill="#d12c2c" fill-rule="evenodd"/></svg>