<svg xmlns="http://www.w3.org/2000/svg" width="49" height="60"><path d="M24.5 60S49 49.22 49 33.75V7.5a29.892 29.892 0 01-3.8.21c-5.13 0-14.36-1.04-20.7-7.71C18.16 6.67 8.93 7.71 3.8 7.71A29.892 29.892 0 010 7.5v26.25C0 49.22 24.5 60 24.5 60zM3.75 11.46h.05c4.93 0 13.67-.9 20.7-6.41 7.03 5.51 15.77 6.41 20.71 6.41h.05v22.29c0 9.87-13.81 18.7-20.76 22.11-6.95-3.4-20.75-12.21-20.75-22.11V11.46zm34.94 8.58l-3.1-2.11-13.13 19.36-8.11-5.77-2.17 3.05 11.24 7.99z" fill="#d12c2c" fill-rule="evenodd"/></svg>