<svg xmlns="http://www.w3.org/2000/svg" width="60" height="56.03"><path d="M58.75 9.47L52.2 1.23A3.262 3.262 0 0049.64 0h-33.9a3.257 3.257 0 00-2.55 1.23L6.63 9.47a6.682 6.682 0 00-1.25 3.67v6.03a4.313 4.313 0 012.2-1.75 4.426 4.426 0 01.62-1.96 4.548 4.548 0 012.79-2.12 4.666 4.666 0 011.2-.16A4.571 4.571 0 0116 15.23a4.756 4.756 0 01.75-.07 4.226 4.226 0 012.13.58l3.63-.95a5.409 5.409 0 011.39-.18 5.529 5.529 0 015.34 4.14l7.12 27.39a5.524 5.524 0 01-3.95 6.74l-3.18.83h26.69A4.086 4.086 0 0060 49.62V13.03a6.633 6.633 0 00-1.25-3.56zM8.77 9.4l2.18-2.73h14.81l1.47-2.41H12.86l1.61-2.01a1.616 1.616 0 011.27-.62h33.9a1.636 1.636 0 011.28.62l1.6 2.01H37.9l.82 2.41h15.72l2.17 2.73H8.77zm.67 10.06l-.92.24a1.821 1.821 0 00-1.31 2.22l.01.04a1.832 1.832 0 002.23 1.31l7.77-2.02a1.844 1.844 0 001.31-2.23l-.01-.04a1.84 1.84 0 00-2.23-1.31l-.92.24a.9.9 0 01-1.11-.65l-.01-.03a2.14 2.14 0 00-2.6-1.53l-.04.01a2.14 2.14 0 00-1.53 2.6l.01.03a.914.914 0 01-.65 1.12zm2.5-2.56a.924.924 0 01.46 1.79.924.924 0 01-.46-1.79zm11.45 28.17a.616.616 0 01-.44.75l-11.3 2.94a.615.615 0 01-.75-.44l-.16-.6a.62.62 0 01.44-.75l11.31-2.94a.616.616 0 01.75.44zm1.38-11.81l.15.6a.612.612 0 01-.44.75L9.02 38.64a.615.615 0 01-.75-.44l-.16-.6a.62.62 0 01.44-.75l15.47-4.03a.628.628 0 01.75.44zm-1.68-4.01L7.62 33.28a.62.62 0 01-.75-.44l-.15-.6a.612.612 0 01.44-.75l15.47-4.02a.612.612 0 01.75.44l.15.59a.607.607 0 01-.44.75zm-.34 10.9l-12.5 3.25a.616.616 0 01-.75-.44l-.15-.6a.616.616 0 01.44-.75l12.49-3.25a.615.615 0 01.75.44l.16.6a.62.62 0 01-.44.75zm11.24 6.6l-7.12-27.38a3.061 3.061 0 00-3.75-2.2l-3.62.94a4.634 4.634 0 01.21.56 3.08 3.08 0 01-2.18 3.77l-7.66 1.99A3.134 3.134 0 016.1 22.5a3.2 3.2 0 01-.17-.86l-3.63.95a3.068 3.068 0 00-2.2 3.75l7.12 27.38a3.084 3.084 0 003.75 2.21l20.82-5.42a3.083 3.083 0 002.2-3.76zm-23.79 6.2L4.01 29.14l20.82-5.43 6.19 23.82z" fill="#518a32" fill-rule="evenodd"/></svg>