<svg xmlns="http://www.w3.org/2000/svg" width="46" height="60"><path d="M45.624 12.86L32.849.37a1.276 1.276 0 00-.905-.37H5.111A5.061 5.061 0 000 5v50a5.061 5.061 0 005.111 5h35.778A5.061 5.061 0 0046 55V13.75a1.243 1.243 0 00-.376-.89zm-36.68-.36h15.334a1.25 1.25 0 110 2.5H8.944a1.25 1.25 0 110-2.5zm18.785 34.64c-5.563 5.36-6.858 5.36-7.285 5.36-1.587 0-2.156-1.78-2.745-3.69-.891 1.77-1.917 3.69-3.644 3.69a4.991 4.991 0 01-2.952-1.44 13.449 13.449 0 01-1.392 1.19 1.3 1.3 0 01-1.79-.25 1.234 1.234 0 01.257-1.75 12.793 12.793 0 001.221-1.05A7.788 7.788 0 017.667 45c0-2.85 2.326-5 3.833-5a3.736 3.736 0 013.833 3.75c0 1.59-1.13 3.65-2.538 5.43a3.008 3.008 0 001.273.82 13.77 13.77 0 001.432-2.48C16.264 46 16.768 45 17.889 45c1.31 0 1.717 1.33 2.236 3.01a18.665 18.665 0 00.626 1.82 52.929 52.929 0 005.186-4.47 1.3 1.3 0 011.807.01 1.233 1.233 0 01-.015 1.77zm9.326-9.64H19.167a1.25 1.25 0 110-2.5h17.888a1.25 1.25 0 110 2.5zm0-7.5H8.944a1.25 1.25 0 110-2.5h28.112a1.25 1.25 0 11-.001 2.5zm0-7.5H8.944a1.25 1.25 0 110-2.5h28.112a1.25 1.25 0 11-.001 2.5zm-1.277-10a2.53 2.53 0 01-2.556-2.5V4.27l8.416 8.23h-5.86zM11.5 42.5a3.206 3.206 0 00-1.278 2.5 4.463 4.463 0 00.889 2.22 7.472 7.472 0 001.667-3.47A1.194 1.194 0 0011.5 42.5z" fill="#518a32" fill-rule="evenodd"/></svg>