<svg xmlns="http://www.w3.org/2000/svg" width="42" height="60"><path d="M11.929 7.51V5.28a.885.885 0 01.894-.88h1.435a3.852 3.852 0 003.5-2.31 3.556 3.556 0 016.48 0 3.851 3.851 0 003.5 2.31h1.436a.884.884 0 01.893.88v2.23a.884.884 0 01-.893.88H12.822a.885.885 0 01-.893-.88zM8.796 49.16h4.185v-4.13H8.8v4.13zm0-24.87h4.185v-4.13H8.8v4.13zm33.2-10.93v40.9A5.787 5.787 0 0136.183 60H5.813A5.786 5.786 0 010 54.26v-40.9a5.786 5.786 0 015.813-5.74h3.219a3.773 3.773 0 003.791 3.64h16.354a3.774 3.774 0 003.791-3.64h3.219A5.787 5.787 0 0142 13.36zM18.175 22.2a1.449 1.449 0 001.451 1.44h13.1a1.435 1.435 0 100-2.87h-13.1a1.44 1.44 0 00-1.447 1.43zm0 12.58a1.44 1.44 0 001.451 1.43h11.643a1.43 1.43 0 100-2.86H19.63a1.44 1.44 0 00-1.451 1.43zm-2.295 8.81a1.441 1.441 0 00-1.452-1.43H7.341a1.441 1.441 0 00-1.452 1.43v7.01a1.441 1.441 0 001.452 1.43h7.087a1.441 1.441 0 001.452-1.43v-7.01zm0-12.43a1.441 1.441 0 00-1.452-1.43H7.341a1.441 1.441 0 00-1.452 1.43v7a1.443 1.443 0 001.452 1.44h7.087a1.443 1.443 0 001.452-1.44v-7zm0-12.44a1.441 1.441 0 00-1.452-1.43H7.341a1.441 1.441 0 00-1.452 1.43v7.01a1.441 1.441 0 001.452 1.43h7.087a1.441 1.441 0 001.452-1.43v-7.01zm19.026 28.64a1.449 1.449 0 00-1.452-1.44H19.63a1.435 1.435 0 100 2.87h13.828a1.441 1.441 0 001.452-1.43zM8.8 36.73h4.185v-4.14H8.8v4.14z" fill="#518a32" fill-rule="evenodd"/></svg>