<svg xmlns="http://www.w3.org/2000/svg" width="70" height="43"><path d="M20.74 30.68a6.16 6.16 0 106.15 6.15 6.163 6.163 0 00-6.15-6.15zm0 9.24a3.08 3.08 0 113.08-3.09 3.086 3.086 0 01-3.08 3.09zm-5.31-9.24H1.63a.986.986 0 00-.99.99v3a.986.986 0 00.99.99h11.06a8.127 8.127 0 012.74-4.98zm37.53 0a6.16 6.16 0 106.15 6.15 6.161 6.161 0 00-6.15-6.15zm0 9.24a3.08 3.08 0 113.07-3.09 3.077 3.077 0 01-3.07 3.09zm16.05-9.24H66.6V17.23a7.907 7.907 0 00-1.35-4.42l-6.03-8.93A7.893 7.893 0 0052.66.4h-9.35a1.985 1.985 0 00-1.98 1.98v28.3H26.04a8.09 8.09 0 012.73 4.99h16.15a8.122 8.122 0 0116.08 0h8.01a.992.992 0 00.99-.99v-3.01a.986.986 0 00-.99-.99zm-9.86-16.09H46.82a.986.986 0 01-.99-.99V6.76a.986.986 0 01.99-.99h7.51a.982.982 0 01.81.42l4.82 6.84a.988.988 0 01-.81 1.56zM36.62 28.7H1.98A1.985 1.985 0 010 26.72v-8.91a1.985 1.985 0 011.98-1.98h34.64a1.978 1.978 0 011.98 1.98v8.91a1.978 1.978 0 01-1.98 1.98zM15.84 12.87H1.98A1.985 1.985 0 010 10.89V1.98A1.985 1.985 0 011.98 0h13.86a1.985 1.985 0 011.98 1.98v8.91a1.985 1.985 0 01-1.98 1.98zm20.78 0H22.77a1.978 1.978 0 01-1.98-1.98V1.98A1.978 1.978 0 0122.77 0h13.85a1.978 1.978 0 011.98 1.98v8.91a1.978 1.978 0 01-1.98 1.98z" fill="#518a32" fill-rule="evenodd"/></svg>