<svg xmlns="http://www.w3.org/2000/svg" width="16" height="16"><path d="M8 0a8 8 0 108 8 7.974 7.974 0 00-8-8zm1.16 8.145l2.73 2.728a.405.405 0 01.11.254.41.41 0 01-.11.255l-.51.509a.386.386 0 01-.25.109.354.354 0 01-.26-.109L8.15 9.164a.182.182 0 00-.26 0l-2.73 2.727a.386.386 0 01-.25.109.354.354 0 01-.26-.109l-.5-.509a.361.361 0 01-.11-.255.358.358 0 01.11-.254l2.72-2.728a.164.164 0 000-.254L4.15 5.164a.351.351 0 010-.51l.5-.509a.431.431 0 01.26-.109.386.386 0 01.25.109l2.73 2.728a.183.183 0 00.26 0l2.72-2.728a.409.409 0 01.26-.109.318.318 0 01.25.109l.51.509a.351.351 0 010 .51L9.16 7.891a.179.179 0 000 .254z" fill="#633" fill-rule="evenodd"/></svg>