<svg xmlns="http://www.w3.org/2000/svg" width="24" height="19"><path d="M2.3 5.856c.31.216 1.22.857 2.75 1.923s2.7 1.887 3.51 2.463q.135.095.57.412t.72.513c.19.13.42.277.7.438a3.992 3.992 0 00.77.364 2.083 2.083 0 00.67.122h.02a2.083 2.083 0 00.67-.122 3.992 3.992 0 00.77-.364c.28-.162.51-.308.7-.438s.43-.3.72-.513.48-.348.57-.412q1.23-.864 6.27-4.387a6.284 6.284 0 001.63-1.66A3.572 3.572 0 0024 2.157a2.176 2.176 0 00-2.14-2.16H2.14a1.9 1.9 0 00-1.58.7A2.744 2.744 0 000 2.452a3.179 3.179 0 00.74 1.842A6.7 6.7 0 002.3 5.856zM22.66 7.3q-4.4 3-6.67 4.657c-.51.378-.92.673-1.24.884a7.548 7.548 0 01-1.26.648 3.859 3.859 0 01-1.48.331h-.02a3.859 3.859 0 01-1.48-.331 7.548 7.548 0 01-1.26-.648c-.32-.211-.73-.506-1.24-.884Q6.195 10.621 1.35 7.3A6.986 6.986 0 010 6.126v10.716a2.086 2.086 0 00.63 1.525 2.046 2.046 0 001.51.635h19.72a2.046 2.046 0 001.51-.635 2.086 2.086 0 00.63-1.525V6.125A7.247 7.247 0 0122.66 7.3z" fill="#633" fill-rule="evenodd"/></svg>